<?xml version="1.0" encoding="UTF-8"?>
<!DOCTYPE svg PUBLIC "-//W3C//DTD SVG 1.1//EN" "http://www.w3.org/Graphics/SVG/1.1/DTD/svg11.dtd">
<!-- Creator: CorelDRAW X7 -->
<svg xmlns="http://www.w3.org/2000/svg" xml:space="preserve" width="25.4mm" height="4.944mm" version="1.1" style="shape-rendering:geometricPrecision; text-rendering:geometricPrecision; image-rendering:optimizeQuality; fill-rule:evenodd; clip-rule:evenodd"
viewBox="0 0 2463 479"
 xmlns:xlink="http://www.w3.org/1999/xlink">
 <defs>
  <style type="text/css">
   <![CDATA[
    .fil9 {fill:white;fill-rule:nonzero}
    .fil7 {fill:url(#id0)}
    .fil5 {fill:url(#id1)}
    .fil2 {fill:url(#id2)}
    .fil1 {fill:url(#id3)}
    .fil3 {fill:url(#id4)}
    .fil4 {fill:url(#id5)}
    .fil6 {fill:url(#id6)}
    .fil0 {fill:url(#id7)}
    .fil8 {fill:url(#id8);fill-rule:nonzero}
   ]]>
  </style>
  <linearGradient id="id0" gradientUnits="userSpaceOnUse" x1="216.66" y1="181.775" x2="390.475" y2="343.499">
   <stop offset="0" style="stop-opacity:1; stop-color:#EF7F1A"/>
   <stop offset="1" style="stop-opacity:1; stop-color:#FECC00"/>
  </linearGradient>
  <linearGradient id="id1" gradientUnits="userSpaceOnUse" xlink:href="#id0" x1="196.803" y1="268.6" x2="270.636" y2="343.664">
  </linearGradient>
  <linearGradient id="id2" gradientUnits="userSpaceOnUse" xlink:href="#id0" x1="99.5554" y1="383.203" x2="175.124" y2="312.88">
  </linearGradient>
  <linearGradient id="id3" gradientUnits="userSpaceOnUse" xlink:href="#id0" x1="331.622" y1="184.354" x2="331.622" y2="254.958">
  </linearGradient>
  <linearGradient id="id4" gradientUnits="userSpaceOnUse" xlink:href="#id0" x1="293.828" y1="96.1134" x2="369.416" y2="166.436">
  </linearGradient>
  <linearGradient id="id5" gradientUnits="userSpaceOnUse" xlink:href="#id0" x1="196.803" y1="207.09" x2="270.655" y2="132.026">
  </linearGradient>
  <linearGradient id="id6" gradientUnits="userSpaceOnUse" xlink:href="#id0" x1="74.6956" y1="291.026" x2="248.51" y2="129.302">
  </linearGradient>
  <linearGradient id="id7" gradientUnits="userSpaceOnUse" xlink:href="#id0" x1="98.2852" y1="270.141" x2="176.394" y2="249.189">
  </linearGradient>
  <linearGradient id="id8" gradientUnits="userSpaceOnUse" xlink:href="#id0" x1="1217.34" y1="480.645" x2="1765.56" y2="-29.4652">
  </linearGradient>
 </defs>
 <g id="Layer_x0020_1">
  <metadata id="CorelCorpID_0Corel-Layer"/>
  <path class="fil0" d="M101 386l0 -157c0,0 6,-66 72,-95l0 130c0,0 -1,69 -72,122z"/>
  <path class="fil1" d="M368 94l0 156c0,0 -6,66 -72,96l0 -131c0,0 1,-69 72,-121z"/>
  <path class="fil2" d="M101 474l0 -157c0,0 6,-66 72,-95l0 131c0,0 -1,69 -72,121z"/>
  <path class="fil3" d="M368 5l0 157c0,0 -6,66 -72,95l0 -130c0,0 1,-69 72,-122z"/>
  <path class="fil4" d="M282 126c0,0 -98,-8 -98,5l1 84c0,0 16,-13 82,-11l16 -1 -1 -77z"/>
  <path class="fil5" d="M185 350c0,0 98,7 98,-6l0 -84c0,0 -17,14 -82,12l-17 0 1 78z"/>
  <path class="fil6" d="M323 25c0,0 -183,-91 -301,112 0,0 -80,156 66,278l0 -34c0,0 -104,-84 -34,-249 0,0 55,-133 256,-88l13 -19z"/>
  <path class="fil7" d="M142 447c0,0 183,91 302,-111 0,0 79,-156 -67,-279l0 35c0,0 104,84 34,249 0,0 -55,132 -256,87l-13 19z"/>
  <path class="fil8" d="M835 39c-2,11 -11,16 -27,16 -6,0 -11,-3 -16,-9 -3,-4 -9,-6 -19,-6 -7,0 -15,1 -24,2 -10,2 -21,4 -34,7 -10,21 -19,45 -28,73 -8,28 -17,61 -26,98 4,0 8,-1 14,-2 6,-1 12,-3 20,-4 18,-4 33,-6 44,-6 21,0 31,5 29,17 -1,5 -5,11 -14,17 -10,5 -16,8 -20,8 -4,0 -6,-1 -6,-2 -1,-2 -2,-3 -2,-4 1,-1 1,-2 2,-4l0 -1c0,0 -1,0 -3,0 -14,0 -38,4 -72,12 -2,4 -3,9 -3,15 -1,5 -2,12 -3,18 -2,14 -4,25 -5,35 -1,9 -1,18 -1,24 1,12 1,21 0,26 -2,9 -6,13 -12,13 -3,0 -6,-2 -8,-6 -2,-3 -3,-9 -5,-15 -2,-11 -3,-24 -2,-39 0,-15 2,-32 5,-50 1,-2 1,-3 1,-4 0,0 0,-1 0,-1 0,-1 1,-1 1,-2 0,0 0,-1 0,-3 -4,2 -7,3 -10,4 -4,1 -6,2 -6,2 -2,0 -4,-2 -6,-4 -1,-2 -3,-5 -5,-8 -4,-7 -5,-13 -4,-19 1,-3 4,-5 11,-7 6,-2 16,-4 28,-5 5,-24 12,-49 21,-77 8,-28 18,-58 30,-90 -10,3 -17,5 -23,7 -5,3 -8,5 -8,6l0 3 0 3c-1,1 -2,3 -3,4 -1,1 -3,1 -5,1 -2,0 -4,-1 -6,-2 -2,-1 -5,-3 -8,-5 -7,-5 -10,-9 -9,-13 1,-5 8,-11 19,-16 12,-5 30,-11 54,-18 3,-9 7,-15 10,-20 3,-5 5,-8 8,-8 2,0 4,2 5,6 2,4 3,9 5,15 19,-5 36,-8 50,-10 14,-2 25,-3 33,-3 4,0 9,0 13,2 4,2 8,4 11,7 3,3 6,6 7,10 2,4 2,8 2,12zm1452 201c4,-5 7,-9 10,-13 3,-4 6,-8 9,-11 -3,0 -5,-1 -8,-1 -3,-1 -5,-2 -8,-3l1 1c-3,-1 -6,-2 -10,-2 -3,-1 -5,-2 -4,-2 -7,1 -13,5 -18,14 -4,4 -6,8 -8,13 -2,4 -3,9 -4,13 -3,15 -1,23 4,23 9,0 21,-11 36,-32zm106 11c-2,11 -11,22 -27,33 -8,5 -14,9 -21,12 -6,3 -12,4 -17,4 -14,0 -23,-6 -26,-19l0 -16 0 -5c-2,3 -5,6 -8,10 -3,3 -5,6 -8,9 -5,7 -10,12 -16,16 -6,4 -12,5 -18,5 -14,0 -23,-4 -28,-13 -1,-3 -1,-6 -2,-9 -1,-3 -2,-8 -3,-12 -1,1 -3,2 -5,3 -2,0 -4,1 -5,1l0 0 -2 2c-5,4 -11,9 -20,15 -17,10 -30,15 -39,15 -10,0 -18,-2 -24,-7 -6,-5 -11,-12 -14,-21 -2,-7 -3,-14 -3,-23 -1,-9 0,-18 1,-27 2,-13 6,-28 11,-45 6,-17 12,-34 19,-52 -11,0 -22,0 -34,1 -12,0 -26,1 -41,2 -3,0 -5,0 -6,0 -2,0 -3,0 -4,0l3 5c0,0 1,1 1,1 0,1 0,2 0,2 -1,3 -2,5 -4,7 -2,2 -5,3 -9,3 -19,0 -27,-8 -25,-23 1,-5 5,-9 12,-14 6,-5 26,-8 58,-10 11,-1 21,-1 30,-2 8,0 18,0 28,-1 4,-16 8,-28 12,-35 4,-7 8,-11 13,-11 11,0 15,7 13,19 0,3 -1,6 -2,10 -1,5 -2,10 -4,16 31,-1 55,-1 72,0 17,2 29,3 34,4 -2,-1 -2,-3 -1,-6 1,-2 2,-3 4,-3 12,0 17,5 15,16 -2,11 -13,16 -33,16 -7,0 -15,0 -25,0 -10,0 -22,0 -35,0 -4,0 -10,0 -18,0 -7,-1 -15,-1 -21,-1 -9,23 -16,44 -22,62 -6,18 -10,32 -12,43 -5,29 0,44 16,44 2,0 5,-1 9,-3 3,-2 8,-4 13,-9 8,-5 16,-12 23,-20 1,-2 3,-2 5,-2 3,0 6,0 8,2l4 -4 18 -19 -1 1c19,-26 36,-39 50,-39 5,0 9,1 12,2 4,2 8,4 11,7 3,2 5,5 7,9 2,3 3,6 3,10 2,-2 4,-3 6,-3 12,0 18,5 16,15 -1,4 -1,7 -2,10 -1,2 -3,5 -4,7 -1,4 -2,7 -3,10 -1,2 -2,5 -2,6 -2,12 0,18 5,18 10,0 19,-4 27,-12 1,-1 3,-3 5,-4 1,-2 3,-4 4,-5 2,-2 4,-3 5,-5 2,-3 4,-4 6,-6 1,-1 1,-1 2,-2 1,0 2,0 2,0 9,0 13,5 11,15zm-1465 -10c-3,10 -14,23 -34,38 -9,6 -18,12 -25,15 -7,4 -14,6 -19,6 -20,0 -28,-11 -24,-34 0,-5 3,-13 7,-22 2,-5 4,-9 5,-12 2,-3 2,-6 3,-8 0,-3 -2,-6 -7,-10 0,-1 -1,-1 -1,-2 -1,-1 -1,-2 -2,-3 -3,8 -9,17 -18,28 -14,18 -25,27 -33,27 -9,0 -13,-5 -11,-14 0,-4 8,-14 24,-30 14,-13 21,-23 22,-27 0,-1 0,-2 0,-4 -1,-1 -1,-3 -1,-4 -1,-3 -1,-5 -1,-7 0,-2 0,-4 0,-5 2,-12 10,-17 22,-17 11,0 15,7 13,21 -1,6 2,12 10,17 11,8 16,16 15,26 -2,4 -5,11 -10,20 -3,5 -5,8 -6,11 -1,3 -2,6 -3,9 -1,5 0,8 3,8 7,0 18,-6 32,-18 8,-8 14,-14 19,-17 6,-4 8,-5 9,-5 5,0 8,1 9,3 2,2 2,5 2,10zm57 -96c-3,16 -9,24 -18,24 -10,0 -13,-8 -10,-23 3,-17 9,-25 19,-25 8,0 11,8 9,24zm43 99c-1,9 -10,21 -27,35 -17,14 -30,21 -39,21 -24,0 -34,-16 -30,-48 -1,1 -2,2 -3,3 -2,1 -3,3 -5,4 -8,10 -15,14 -20,14 -9,0 -12,-5 -10,-16 1,-4 8,-12 21,-23 4,-3 7,-6 11,-10 3,-3 6,-6 9,-10 0,0 1,-2 3,-6 3,-3 6,-9 11,-17 3,-5 6,-8 10,-8 12,0 17,5 15,16 0,3 -1,7 -3,11 -1,5 -3,10 -5,16 -2,6 -4,11 -5,15 -1,4 -2,8 -2,10 -3,13 1,19 9,19 8,0 17,-6 26,-18 7,-8 12,-13 15,-17 3,-4 6,-6 8,-6 9,0 13,5 11,15zm76 -47c2,-3 5,-6 7,-8 2,-3 4,-5 5,-6 -1,-1 -3,-1 -4,-2 -1,-1 -3,-1 -5,-2 -2,0 -4,-1 -5,-2 -2,0 -3,0 -5,0 -9,0 -19,6 -31,18 -6,7 -11,13 -14,18 -3,6 -6,11 -6,16 -2,11 0,16 8,16 7,0 16,-5 26,-15l0 0c1,-2 4,-6 7,-10 3,-5 8,-11 14,-18 0,-1 1,-2 2,-3 0,-1 1,-2 2,-2l-1 0zm-3 127c0,-2 0,-4 1,-7 1,-2 1,-7 2,-14 -8,2 -17,5 -26,10 -10,4 -19,10 -30,18l1 0c-24,17 -37,34 -41,51 -1,10 2,19 9,27 8,7 16,11 25,11 28,0 47,-32 59,-96zm72 -18c-1,6 -4,9 -9,9 -6,0 -12,-3 -19,-8l0 0c-3,-1 -6,-2 -9,-3 -3,-1 -5,-2 -7,-2 -2,8 -5,13 -8,17 1,-1 3,-1 4,0 2,1 2,2 1,4 -14,85 -43,128 -86,128 -11,0 -20,-2 -28,-6 -8,-3 -15,-9 -20,-16 -5,-6 -9,-14 -10,-24 -2,-9 -2,-19 0,-30 4,-24 21,-46 52,-68 12,-8 25,-16 38,-21 12,-6 24,-9 37,-12 2,-13 5,-29 7,-45 -2,2 -3,3 -4,4 -2,1 -3,2 -4,4l-9 11c-17,19 -33,29 -48,29 -14,0 -24,-4 -31,-13 -7,-8 -10,-19 -7,-33 3,-16 15,-34 36,-54 22,-22 40,-32 56,-32 7,0 13,3 20,9 7,7 10,13 9,20 0,1 -1,1 -1,2 0,0 0,1 0,1 11,3 15,16 11,40 -1,2 -1,4 -2,8 -1,3 -1,6 -2,9 0,1 -1,2 -1,4 0,1 0,2 0,2 -1,4 -2,8 -2,13 -1,4 -2,9 -3,15 0,2 0,3 0,3 0,0 0,1 0,3 4,0 8,1 12,3 4,1 8,2 12,4 12,6 17,15 15,25zm168 -52c-2,9 -11,19 -29,31 -8,5 -15,9 -21,12 -7,3 -12,5 -16,5 -5,0 -10,-2 -14,-5 -3,-3 -6,-8 -9,-14 -1,-4 -2,-8 -3,-13 0,-5 -1,-9 -1,-13 -2,3 -4,5 -6,7 -2,3 -4,5 -7,8 -13,14 -25,22 -36,22 -19,0 -26,-15 -21,-45 1,-2 2,-6 3,-9 1,-4 3,-8 5,-12l-1 0c2,-3 3,-7 5,-10 1,-4 2,-6 2,-8 -1,1 -3,2 -4,3 -2,0 -4,2 -5,3 -8,7 -14,10 -18,10 -8,0 -11,-5 -9,-14 0,-9 8,-16 22,-22 11,-5 20,-7 28,-7 12,0 17,7 14,21 0,3 -1,7 -3,11 -1,4 -3,9 -5,14 -2,5 -4,9 -6,13 -1,3 -2,6 -2,8 -2,10 -1,14 2,14 6,0 17,-12 32,-37 18,-29 28,-44 32,-44 1,0 3,0 5,1 2,1 4,3 6,5 1,1 3,3 4,5 1,2 1,4 1,7 -1,3 -1,6 -2,8 0,1 0,3 -1,4 -1,2 -1,3 -2,4 0,1 -1,3 -1,5 -3,8 -5,14 -6,18 -1,8 -1,15 0,22 0,3 2,6 3,8 1,1 3,2 5,2 3,0 6,-1 11,-4 5,-3 9,-6 14,-10 6,-5 11,-9 15,-12 5,-4 8,-5 9,-5 8,0 11,4 10,13zm67 16c1,-2 0,-6 -1,-10 -1,-5 -2,-9 -5,-13 -16,6 -25,14 -26,26 -2,8 2,11 10,11 13,0 20,-4 22,-14zm53 -34c-2,10 -8,15 -19,15 -3,0 -4,0 -5,-1 -1,-1 -2,-3 -2,-4 -1,-1 -2,-3 -3,-4 0,-1 -2,-1 -4,-1l-1 0 0 0c3,7 4,13 5,19 1,5 1,10 0,15 -1,5 -3,10 -6,14 -2,4 -6,8 -10,11 -4,2 -9,5 -14,6 -5,2 -10,2 -15,2 -27,0 -39,-11 -35,-35 1,-5 3,-9 5,-14 2,-4 5,-9 9,-13 3,-4 7,-8 11,-11 4,-4 9,-7 13,-9 -2,-4 -3,-8 -4,-11 -4,5 -9,11 -13,16 -5,6 -10,12 -16,19 -21,24 -35,36 -43,36 -9,0 -12,-4 -11,-12 1,-2 2,-4 3,-7 2,-2 4,-5 7,-7 2,-3 5,-6 8,-9 3,-2 6,-5 9,-8l15 -15c7,-7 13,-13 18,-19 5,-6 8,-11 11,-15l-1 1 7 -20c4,-13 10,-19 17,-19 13,0 18,8 15,24 0,1 -1,3 -2,5 0,2 -1,4 -2,6l0 0 -3 7c0,1 1,3 2,6 2,4 4,8 8,13 3,-1 6,-2 9,-2 3,0 7,0 10,0 21,0 29,7 27,21zm346 -197c-2,11 -11,16 -27,16 -6,0 -11,-3 -16,-9 -3,-4 -9,-6 -19,-6 -7,0 -15,1 -24,2 -10,2 -21,4 -34,7 -10,21 -19,45 -28,73 -8,28 -17,61 -26,98 4,0 8,-1 14,-2 6,-1 12,-3 20,-4 18,-4 33,-6 44,-6 21,0 31,5 29,17 -1,5 -5,11 -14,17 -10,5 -16,8 -20,8 -4,0 -6,-1 -6,-2 -1,-2 -2,-3 -2,-4 1,-1 1,-2 2,-4l0 -1c0,0 -1,0 -3,0 -14,0 -38,4 -72,12 -2,4 -3,9 -3,15 -1,5 -2,12 -3,18 -2,14 -4,25 -5,35 -1,9 -1,18 -1,24 1,12 1,21 0,26 -2,9 -5,13 -12,13 -3,0 -6,-2 -8,-6 -2,-3 -3,-9 -5,-15 -2,-11 -3,-24 -2,-39 0,-15 2,-32 5,-50 1,-2 1,-3 1,-4 0,0 0,-1 0,-1 1,-1 1,-1 1,-2 0,0 0,-1 0,-3 -4,2 -7,3 -10,4 -4,1 -5,2 -6,2 -2,0 -4,-2 -5,-4 -2,-2 -4,-5 -6,-8 -4,-7 -5,-13 -4,-19 1,-3 4,-5 11,-7 6,-2 16,-4 28,-5 5,-24 12,-49 21,-77 8,-28 18,-58 30,-90 -10,3 -17,5 -23,7 -5,3 -8,5 -8,6l0 3 0 3c-1,1 -2,3 -3,4 -1,1 -3,1 -5,1 -2,0 -4,-1 -6,-2 -2,-1 -5,-3 -8,-5 -7,-5 -10,-9 -9,-13 1,-5 8,-11 19,-16 12,-5 30,-11 54,-18 3,-9 7,-15 10,-20 3,-5 6,-8 8,-8 2,0 4,2 5,6 2,4 3,9 5,15 19,-5 36,-8 50,-10 14,-2 25,-3 33,-3 4,0 9,0 13,2 4,2 8,4 11,7 3,3 6,6 7,10 2,4 2,8 2,12zm19 106c-3,16 -9,24 -18,24 -9,0 -13,-8 -10,-23 3,-17 9,-25 19,-25 9,0 12,8 9,24zm43 99c-1,9 -10,21 -27,35 -17,14 -30,21 -39,21 -24,0 -34,-16 -30,-48 -1,1 -2,2 -3,3 -2,1 -3,3 -4,4 -9,10 -16,14 -21,14 -9,0 -12,-5 -10,-16 1,-4 8,-12 21,-23 4,-3 7,-6 11,-10 3,-3 6,-6 9,-10 0,0 1,-2 4,-6 2,-3 5,-9 10,-17 3,-5 6,-8 10,-8 12,0 17,5 15,16 0,3 -1,7 -3,11 -1,5 -3,10 -5,16 -2,6 -3,11 -5,15 -1,4 -2,8 -2,10 -3,13 1,19 10,19 8,0 16,-6 25,-18 7,-8 12,-13 15,-17 4,-4 6,-6 8,-6 10,0 14,5 11,15zm-34 13c0,0 0,1 -1,1 0,-1 1,-1 1,-1 0,0 0,0 0,0zm82 -61c1,-3 -1,-5 -5,-5 -4,0 -10,6 -18,17l0 -1c-3,5 -6,9 -8,13 -2,4 -4,8 -5,11 3,-1 6,-3 9,-5 4,-3 7,-5 11,-9 5,-4 8,-8 11,-12 3,-4 5,-7 5,-9zm57 67c-12,10 -24,19 -39,25 -15,8 -29,12 -43,12 -10,0 -19,-5 -27,-15 -1,-1 -2,-2 -3,-4 -1,-3 -2,-6 -4,-11 -4,3 -6,5 -8,6 -2,0 -4,0 -6,0 -9,0 -12,-5 -11,-16 0,0 1,0 1,-2l0 0c0,0 1,0 1,0 0,-1 0,-1 0,-1 1,0 1,0 1,-1 0,1 0,1 -1,1 1,-3 2,-4 4,-5 4,-1 8,-4 11,-6 2,-3 4,-6 5,-10 1,-6 4,-14 7,-21 4,-8 8,-15 14,-22 6,-10 13,-17 20,-22 7,-4 14,-7 22,-7 21,0 30,11 26,31 0,6 -3,11 -6,17 -4,5 -9,11 -16,18l0 0c-5,5 -11,10 -17,14 -6,3 -11,7 -16,9 -5,2 -7,3 -7,3 -1,4 1,8 5,11 4,3 9,5 13,5 6,0 10,-1 15,-2 5,-1 10,-3 15,-6 4,-2 7,-4 11,-6 4,-2 7,-4 11,-7 4,-3 7,-6 9,-8 3,-1 5,-2 6,-2 7,0 10,6 8,18l-1 4zm68 7c1,-2 0,-6 -1,-10 -1,-5 -2,-9 -5,-13 -16,6 -25,14 -26,26 -2,8 2,11 10,11 13,0 20,-4 22,-14zm53 -34c-2,10 -8,15 -19,15 -3,0 -4,0 -5,-1 -1,-1 -2,-3 -2,-4 -1,-1 -2,-3 -3,-4 0,-1 -2,-1 -4,-1l-1 0 0 0c3,7 4,13 5,19 1,5 1,10 0,15 -1,5 -3,10 -6,14 -2,4 -6,8 -10,11 -4,2 -9,5 -14,6 -5,2 -10,2 -15,2 -27,0 -39,-11 -35,-35 1,-5 3,-9 5,-14 2,-4 5,-9 9,-13 3,-4 7,-8 11,-11 4,-4 9,-7 13,-9 -2,-4 -3,-8 -4,-11 -4,5 -9,11 -13,16 -5,6 -10,12 -16,19 -21,24 -35,36 -43,36 -9,0 -12,-4 -11,-12 1,-2 2,-4 3,-7 2,-2 4,-5 7,-7 2,-3 5,-6 8,-9 3,-2 6,-5 9,-8l15 -15c7,-7 13,-13 18,-19 4,-6 8,-11 11,-15l-1 1 7 -20c4,-13 10,-19 17,-19 13,0 18,8 15,24 0,1 -1,3 -2,5 0,2 -1,4 -2,6l0 0 -3 7c0,1 1,3 2,6 2,4 4,8 8,13 3,-1 6,-2 9,-2 3,0 7,0 10,0 21,0 29,7 27,21z"/>
  <path class="fil9" d="M1224 446c0,10 0,19 -1,23 0,3 -1,6 -3,6 -1,1 -3,1 -4,1 -2,0 -2,0 -2,1 0,0 1,1 2,1 2,0 5,0 8,0 3,-1 5,-1 6,-1 4,0 7,1 12,1 5,0 11,0 19,0 4,0 5,0 6,-3 1,-2 1,-10 1,-12 0,-1 0,-2 0,-2 -1,0 -1,0 -2,2 0,4 -2,6 -5,8 -3,1 -7,1 -10,1 -11,0 -13,-2 -13,-9 -1,-3 0,-14 0,-17l0 -9c0,-1 0,-1 0,-1 3,0 14,0 16,0 4,1 6,2 6,4 1,2 1,3 1,4 0,1 0,1 1,1 1,0 1,-1 1,-2 0,0 0,-5 0,-7 1,-6 1,-8 1,-8 0,-1 0,-1 -1,-1 0,0 -1,0 -2,1 -1,1 -2,2 -5,2 -2,0 -15,0 -18,0 0,0 0,0 0,-1l0 -28c0,-1 0,-1 0,-1 3,0 14,0 16,0 6,1 7,2 8,4 0,2 0,3 0,4 0,1 0,2 1,2 1,0 1,-1 1,-1 1,-2 1,-7 1,-8 0,-5 1,-6 1,-7 0,0 0,-1 -1,-1 0,0 -1,0 -2,1 -1,0 -2,0 -4,0 -3,0 -25,0 -28,0 -2,0 -4,0 -7,0 -3,0 -6,0 -9,0 -2,0 -3,0 -3,1 0,1 1,1 2,1 2,0 4,0 5,0 3,1 4,3 4,7 1,3 1,6 1,23l0 20zm84 -30l1 0c1,2 14,16 26,28 11,12 26,26 33,33 1,1 2,2 3,2 1,0 2,-1 2,-3l1 -70c0,-6 1,-9 4,-10 1,0 2,0 3,0 2,0 2,0 2,-1 0,-1 -1,-1 -2,-1 -6,0 -10,0 -11,0 -2,0 -8,0 -13,0 -2,0 -3,0 -3,1 0,1 0,1 2,1 1,0 4,0 5,1 3,1 4,3 4,10l1 49 0 0c-2,-1 -17,-17 -25,-25 -16,-16 -33,-34 -34,-35 -2,-2 -3,-4 -4,-4 -1,0 -2,2 -2,4l-1 65c0,10 0,13 -3,14 -2,1 -4,1 -5,1 -1,0 -2,0 -2,1 0,1 1,1 3,1 5,0 11,-1 12,-1 2,0 6,1 13,1 2,0 3,0 3,-1 0,-1 -1,-1 -2,-1 -2,0 -4,0 -6,-1 -2,-1 -3,-4 -4,-12l-1 -47zm124 30c0,10 0,19 0,23 0,3 -1,6 -3,6 -1,1 -3,1 -4,1 -2,0 -2,0 -2,1 0,0 1,1 2,1 5,0 11,-1 14,-1 3,0 10,1 17,1 2,0 3,-1 3,-1 0,-1 -1,-1 -2,-1 -2,0 -4,0 -6,-1 -3,0 -4,-3 -4,-6 -1,-4 -1,-13 -1,-23l0 -46 14 0c10,1 13,4 13,7l0 1c1,2 1,2 2,2 0,0 1,-1 1,-2 0,-3 0,-10 0,-12 0,-2 0,-3 -1,-3 0,0 -1,0 -3,1 -2,0 -4,0 -8,0l-43 0c-4,0 -8,0 -12,0 -2,0 -3,-2 -4,-2 -1,0 -1,1 -2,3 0,0 -2,10 -2,12 0,1 0,2 1,2 1,0 1,0 1,-1 0,-1 1,-3 2,-4 2,-3 4,-3 11,-3l16 -1 0 46zm74 0c0,10 0,19 -1,23 0,3 -1,6 -3,6 -1,1 -2,1 -4,1 -1,0 -2,0 -2,1 0,0 1,1 3,1 2,0 5,0 7,0 3,-1 5,-1 7,-1 3,0 6,1 11,1 5,0 11,0 19,0 4,0 5,0 6,-3 1,-2 2,-10 2,-12 0,-1 0,-2 -1,-2 -1,0 -1,0 -1,2 -1,4 -3,6 -5,8 -3,1 -8,1 -11,1 -11,0 -13,-2 -13,-9 0,-3 0,-14 0,-17l0 -9c0,-1 0,-1 0,-1 3,0 14,0 16,0 4,1 6,2 6,4 1,2 1,3 1,4 0,1 0,1 1,1 1,0 1,-1 1,-2 0,0 0,-5 0,-7 1,-6 1,-8 1,-8 0,-1 0,-1 -1,-1 0,0 -1,0 -1,1 -1,1 -3,2 -6,2 -2,0 -15,0 -17,0 -1,0 -1,0 -1,-1l0 -28c0,-1 0,-1 1,-1 2,0 13,0 15,0 6,1 7,2 8,4 0,2 0,3 0,4 0,1 1,2 1,2 1,0 1,-1 2,-1 0,-2 0,-7 0,-8 0,-5 1,-6 1,-7 0,0 0,-1 -1,-1 0,0 -1,0 -1,1 -1,0 -3,0 -5,0 -2,0 -24,0 -28,0 -1,0 -4,0 -7,0 -3,0 -6,0 -9,0 -2,0 -2,0 -2,1 0,1 0,1 2,1 1,0 3,0 4,0 4,1 4,3 5,7 0,3 0,6 0,23l0 20zm79 0c0,10 0,19 0,23 -1,3 -1,6 -3,6 -1,1 -3,1 -4,1 -2,0 -2,0 -2,1 0,0 1,1 2,1 5,0 12,-1 14,-1 1,0 9,1 16,1 1,0 2,-1 2,-1 0,-1 0,-1 -1,-1 -2,0 -4,0 -6,-1 -3,0 -4,-3 -4,-6 -1,-4 -1,-13 -1,-23l0 -2c0,-1 1,-1 1,-1l10 0c1,0 1,0 2,1 1,2 7,9 11,15 6,9 10,14 15,17 3,1 6,2 12,2l11 0c1,0 2,0 2,-1 0,-1 -1,-1 -2,-1 0,0 -1,0 -3,-1 -1,0 -6,-1 -12,-7 -7,-7 -14,-17 -24,-29 11,-9 14,-17 14,-25 0,-8 -4,-13 -7,-15 -6,-4 -14,-5 -21,-5 -3,0 -11,0 -15,0 -2,0 -9,0 -15,0 -2,0 -3,0 -3,1 0,1 1,1 2,1 2,0 4,0 4,0 4,1 5,3 5,7 0,3 0,6 0,23l0 20zm13 -45c0,-1 1,-1 1,-1 2,-1 4,-1 6,-1 7,0 17,5 17,20 0,10 -3,15 -6,17 -2,2 -4,2 -8,2 -3,0 -6,0 -9,-1 0,0 -1,-1 -1,-2l0 -34zm91 45c0,10 0,19 0,23 -1,3 -1,6 -4,6 -1,1 -2,1 -4,1 -1,0 -1,0 -1,1 0,0 0,1 2,1 4,0 11,-1 14,-1 3,0 10,1 17,1 1,0 2,-1 2,-1 0,-1 0,-1 -1,-1 -2,0 -5,0 -6,-1 -3,0 -4,-3 -4,-6 -1,-4 -1,-13 -1,-23l0 -46 14 0c10,1 13,4 13,7l0 1c0,2 1,2 1,2 1,0 1,-1 1,-2 0,-3 1,-10 1,-12 0,-2 0,-3 -1,-3 -1,0 -1,0 -3,1 -2,0 -4,0 -8,0l-44 0c-3,0 -8,0 -11,0 -3,0 -4,-2 -5,-2 0,0 -1,1 -1,3 0,0 -2,10 -2,12 0,1 0,2 1,2 0,0 1,0 1,-1 0,-1 1,-3 2,-4 2,-3 4,-3 11,-3l16 -1 0 46zm96 3c1,0 1,0 1,1l9 23c1,1 0,2 -1,3 -1,0 -1,0 -1,1 0,0 1,0 3,1 9,0 17,0 21,0 4,0 5,0 5,-1 0,-1 -1,-1 -1,-1 -2,0 -3,0 -5,-1 -2,0 -6,-2 -10,-12 -7,-17 -25,-62 -27,-68 -2,-2 -2,-3 -3,-3 -1,0 -2,1 -3,4l-28 70c-2,5 -4,9 -10,10 0,0 -2,0 -3,0 -1,0 -1,0 -1,1 0,1 0,1 2,1 6,0 12,-1 13,-1 3,0 8,1 12,1 1,0 2,0 2,-1 0,-1 -1,-1 -2,-1l-2 0c-3,0 -4,-2 -4,-4 0,-1 0,-4 1,-6l6 -16c1,-1 1,-1 1,-1l25 0zm-22 -6c-1,0 -1,0 -1,0l10 -28c0,0 1,-1 1,-1 0,0 0,1 1,1l10 28c0,0 0,0 -1,0l-20 0zm80 3c0,10 0,19 0,24 -1,3 -1,5 -4,5 -1,1 -2,1 -4,1 -1,0 -1,0 -1,1 0,0 0,1 2,1 4,0 11,-1 14,-1 3,0 10,1 17,1 1,0 2,-1 2,-1 0,-1 0,-1 -2,-1 -1,0 -4,0 -5,-1 -4,0 -4,-2 -5,-5 0,-5 0,-14 0,-24l0 -20c0,-17 0,-20 0,-23 0,-4 1,-6 4,-7 1,0 2,0 3,0 2,0 2,0 2,-1 0,-1 -1,-1 -2,-1 -4,0 -11,0 -14,0 -3,0 -10,0 -14,0 -2,0 -3,0 -3,1 0,1 1,1 2,1 1,0 3,0 4,0 3,1 4,3 4,7 0,3 0,6 0,23l0 20zm65 -30l0 0c2,2 14,16 26,28 12,12 26,26 33,33 1,1 3,2 4,2 1,0 1,-1 1,-3l2 -70c0,-6 1,-9 4,-10 1,0 2,0 3,0 1,0 2,0 2,-1 0,-1 -1,-1 -3,-1 -5,0 -9,0 -10,0 -3,0 -8,0 -14,0 -2,0 -3,0 -3,1 0,1 1,1 2,1 2,0 4,0 6,1 3,1 4,3 4,10l1 49 -1 0c-2,-1 -17,-17 -24,-25 -16,-16 -33,-34 -35,-35 -1,-2 -2,-4 -4,-4 -1,0 -1,2 -1,4l-1 65c0,10 -1,13 -4,14 -1,1 -3,1 -5,1 -1,0 -1,0 -1,1 0,1 1,1 2,1 6,0 11,-1 12,-1 2,0 7,1 14,1 1,0 2,0 2,-1 0,-1 0,-1 -1,-1 -2,0 -4,0 -6,-1 -2,-1 -4,-4 -4,-12l-1 -47zm102 51c0,3 -1,8 -4,8 -2,1 -3,1 -4,1 -1,0 -1,0 -1,1 0,1 1,1 2,1 3,0 8,-1 11,-1 2,0 7,1 11,1 2,0 3,0 3,-1 0,-1 -1,-1 -2,-1 -1,0 -2,0 -4,-1 -2,0 -4,-1 -4,-3 0,-2 0,-4 1,-6l5 -44 1 0c4,9 10,23 11,25 2,3 10,20 13,25 2,3 3,6 4,6 1,0 2,-1 4,-7l24 -50 1 0 6 49c1,3 0,4 0,5 -1,0 -1,0 -1,1 0,1 0,1 3,1 4,0 20,1 22,1 2,0 3,-1 3,-1 0,-1 -1,-1 -2,-1 -1,0 -3,0 -6,-1 -4,-1 -5,-5 -6,-12l-10 -68c0,-2 -1,-3 -2,-3 -1,0 -2,0 -2,2l-31 64 -30 -63c-1,-3 -2,-3 -3,-3 -1,0 -1,1 -2,2l-11 73zm132 -21c0,10 0,19 0,23 -1,3 -1,6 -3,6 -1,1 -3,1 -4,1 -2,0 -2,0 -2,1 0,0 1,1 2,1 2,0 5,0 8,0 2,-1 5,-1 6,-1 3,0 7,1 11,1 5,0 11,0 20,0 4,0 5,0 6,-3 0,-2 1,-10 1,-12 0,-1 0,-2 -1,-2 -1,0 -1,0 -1,2 -1,4 -2,6 -5,8 -3,1 -8,1 -10,1 -12,0 -14,-2 -14,-9 0,-3 0,-14 0,-17l0 -9c0,-1 0,-1 1,-1 3,0 14,0 16,0 4,1 5,2 6,4 0,2 0,3 0,4 0,1 1,1 1,1 1,0 1,-1 1,-2 0,0 1,-5 1,-7 0,-6 1,-8 1,-8 0,-1 -1,-1 -1,-1 -1,0 -1,0 -2,1 -1,1 -3,2 -5,2 -3,0 -16,0 -18,0 -1,0 -1,0 -1,-1l0 -28c0,-1 0,-1 1,-1 2,0 14,0 16,0 5,1 6,2 7,4 1,2 1,3 1,4 0,1 0,2 1,2 1,0 1,-1 1,-1 0,-2 0,-7 1,-8 0,-5 0,-6 0,-7 0,0 0,-1 0,-1 -1,0 -1,0 -2,1 -1,0 -3,0 -5,0 -2,0 -24,0 -28,0 -1,0 -4,0 -6,0 -3,0 -6,0 -9,0 -2,0 -3,0 -3,1 0,1 1,1 2,1 2,0 3,0 4,0 4,1 5,3 5,7 0,3 0,6 0,23l0 20zm85 -30l0 0c2,2 15,16 27,28 11,12 25,26 32,33 2,1 3,2 4,2 1,0 1,-1 1,-3l2 -70c0,-6 1,-9 4,-10 1,0 2,0 3,0 1,0 2,0 2,-1 0,-1 -1,-1 -2,-1 -6,0 -10,0 -11,0 -3,0 -8,0 -14,0 -1,0 -3,0 -3,1 0,1 1,1 2,1 2,0 4,0 6,1 3,1 4,3 4,10l1 49 -1 0c-1,-1 -16,-17 -24,-25 -16,-16 -33,-34 -34,-35 -2,-2 -3,-4 -4,-4 -2,0 -2,2 -2,4l-1 65c0,10 0,13 -3,14 -2,1 -4,1 -5,1 -1,0 -2,0 -2,1 0,1 1,1 2,1 6,0 11,-1 12,-1 2,0 7,1 14,1 2,0 3,0 3,-1 0,-1 -1,-1 -2,-1 -2,0 -4,0 -6,-1 -2,-1 -4,-4 -4,-12l-1 -47zm124 30c0,10 0,19 0,23 -1,3 -1,6 -4,6 -1,1 -2,1 -4,1 -1,0 -1,0 -1,1 0,0 0,1 2,1 4,0 11,-1 14,-1 3,0 10,1 17,1 1,0 2,-1 2,-1 0,-1 0,-1 -2,-1 -1,0 -4,0 -5,-1 -3,0 -4,-3 -4,-6 -1,-4 -1,-13 -1,-23l0 -46 14 0c10,1 13,4 13,7l0 1c0,2 0,2 1,2 1,0 1,-1 1,-2 0,-3 1,-10 1,-12 0,-2 0,-3 -1,-3 -1,0 -2,0 -3,1 -2,0 -4,0 -8,0l-44 0c-3,0 -8,0 -11,0 -3,0 -4,-2 -5,-2 0,0 -1,1 -1,3 0,0 -2,10 -2,12 0,1 0,2 1,2 0,0 1,0 1,-1 0,-1 1,-3 2,-4 1,-3 4,-3 11,-3l16 -1 0 46zm84 33c6,0 12,-1 17,-4 8,-5 11,-13 11,-19 0,-11 -5,-19 -18,-29l-4 -2c-9,-7 -11,-11 -11,-16 0,-7 5,-11 13,-11 7,0 10,3 12,5 2,3 3,6 3,7 0,2 0,2 1,2 1,0 1,-1 1,-3 0,-9 1,-12 1,-13 0,-1 -1,-1 -2,-2 -3,0 -7,-2 -15,-2 -15,0 -25,9 -25,21 0,9 4,17 16,27l5 4c9,7 11,12 11,17 0,6 -5,13 -15,13 -7,0 -13,-3 -16,-11 0,-2 -1,-4 -1,-6 0,-1 0,-2 -1,-2 -1,0 -1,2 -1,3 0,2 -1,9 -1,15 0,2 1,3 2,3 5,3 10,3 17,3z"/>
 </g>
</svg>
